# xmcd
#
# Track frame offsets:
#	150
#	10067
#	22705
#	34902
#	46250
#	56570
#	67125
#	79845
#	92495
#	102505
#	110517
#	123425
#	136295
#	147755
#	159622
#	169302
#	178185
#	191177
#	206180
#	219040
#	230062
#	240582
#	251615
#	260232
#	273880
#	282870
#	293642
#
# Disc length: 4070 seconds
#
# Revision: 0
# Processed by: cddbd v1.5.2PL0 Copyright (c) Steve Scherf et al.
# Submitted via: audiograbber 1.80.04
#
DISCID=900fe41b
DTITLE=(Compilation) - GENTLEMEN Of Country and Western
DYEAR=1990
DGENRE=Country
TTITLE0=Johnny Cash - Hey Porter
TTITLE1=Johnny Cash - Folsom Prison Blues
TTITLE2=Johnny Cash - I Walk The Line
TTITLE3=Johnny Cash - Big River
TTITLE4=Kenny Rogers - Ticket To Nowhere
TTITLE5=Kenny Rogers - She Even Woke Me Up To Say Goodbye
TTITLE6=Kenny Rogers - Run Through Your Mind
TTITLE7=Willie Nelson - Any Old Arms Will Do
TTITLE8=Willie Nelson - Healing Hands Of Time
TTITLE9=Willie Nelson - Things To Remember
TTITLE10=Don Williams - Ruby Tuesday
TTITLE11=Don Williams - Where Do We Go From Here
TTITLE12=Don Williams - Follow Me Back To Louisville
TTITLE13=Johnny Cash - Home Of The Blues
TTITLE14=Johnny Cash - Rock Island Line
TTITLE15=Johnny Cash - Wreck Of The Old '97
TTITLE16=Kenny Rogers - Sleep Comes Easy
TTITLE17=Kenny Rogers - For The Good Times
TTITLE18=Kenny Rogers - Ruby Don't Take Your Love To Town
TTITLE19=Willie Nelson  and Waylon Jennings - Dream Baby
TTITLE20=Willie Nelson  and Waylon Jennings - Burning Memories
TTITLE21=Willie Nelson  and Waylon Jennings - Big Mamou
TTITLE22=Willie Nelson - Why Are Picking On Me
TTITLE23=Willie Nelson - A Moment Isn't Very Long
TTITLE24=Don Williams - Apartment No. 9
TTITLE25=Don Williams - Always Something There To Remind Me
TTITLE26=Don Williams - On Her Way To Be A Woman
EXTD=
EXTT0=
EXTT1=
EXTT2=
EXTT3=
EXTT4=
EXTT5=
EXTT6=
EXTT7=
EXTT8=
EXTT9=
EXTT10=
EXTT11=
EXTT12=
EXTT13=
EXTT14=
EXTT15=
EXTT16=
EXTT17=
EXTT18=
EXTT19=
EXTT20=
EXTT21=
EXTT22=
EXTT23=
EXTT24=
EXTT25=
EXTT26=
PLAYORDER=
